HIERARCHY
ROOT joint_Root
{
	OFFSET 0.0 0.0 0.0
	CHANNELS 6 Xposition Yposition Zposition Zrotation Xrotation Yrotation 
	JOINT Hips
	{
		OFFSET -17.1583 93.1646 452.98
		CHANNELS 6 Xposition Yposition Zposition Zrotation Xrotation Yrotation 
		JOINT Spine
		{
			OFFSET 15.7357 0.0 0.0
			CHANNELS 6 Xposition Yposition Zposition Zrotation Xrotation Yrotation 
			JOINT Chest
			{
				OFFSET 8.98455 -0.406207 0.0
				CHANNELS 6 Xposition Yposition Zposition Zrotation Xrotation Yrotation 
				JOINT Neck
				{
					OFFSET 16.3773 0.0 0.0
					CHANNELS 6 Xposition Yposition Zposition Zrotation Xrotation Yrotation 
					JOINT Head
					{
						OFFSET 6.45672 0.0 0.0
						CHANNELS 6 Xposition Yposition Zposition Zrotation Xrotation Yrotation 
						End Site
						{
							OFFSET 0.0 0.0 0.0
						}
					}
				}
				JOINT Shoulder_L
				{
					OFFSET 12.9942 -0.242716 4.98039
					CHANNELS 6 Xposition Yposition Zposition Zrotation Xrotation Yrotation 
					JOINT UpperArm_L
					{
						OFFSET 5.34809 0.0 0.0
						CHANNELS 6 Xposition Yposition Zposition Zrotation Xrotation Yrotation 
						JOINT LowerArm_L
						{
							OFFSET 24.3286 1.87007e-05 0.0
							CHANNELS 6 Xposition Yposition Zposition Zrotation Xrotation Yrotation 
							JOINT Hand_L
							{
								OFFSET 22.2916 0.0 0.0
								CHANNELS 6 Xposition Yposition Zposition Zrotation Xrotation Yrotation 
								End Site
								{
									OFFSET 0.0 0.0 0.0
								}
							}
						}
					}
				}
				JOINT Shoulder_R
				{
					OFFSET 12.9945 -0.242716 -4.98039
					CHANNELS 6 Xposition Yposition Zposition Zrotation Xrotation Yrotation 
					JOINT UpperArm_R
					{
						OFFSET -5.34813 0.0 0.0
						CHANNELS 6 Xposition Yposition Zposition Zrotation Xrotation Yrotation 
						JOINT LowerArm_R
						{
							OFFSET -24.3289 0.000322201 0.0
							CHANNELS 6 Xposition Yposition Zposition Zrotation Xrotation Yrotation 
							JOINT Hand_R
							{
								OFFSET -22.2915 -0.000108084 0.0
								CHANNELS 6 Xposition Yposition Zposition Zrotation Xrotation Yrotation 
								End Site
								{
									OFFSET 0.0 0.0 0.0
								}
							}
						}
					}
				}
			}
		}
		JOINT UpperLeg_L
		{
			OFFSET -2.19248 -6.46944 0.0
			CHANNELS 6 Xposition Yposition Zposition Zrotation Xrotation Yrotation 
			JOINT LowerLeg_L
			{
				OFFSET 39.0811 0.0 -1.23785e-05
				CHANNELS 6 Xposition Yposition Zposition Zrotation Xrotation Yrotation 
				JOINT Foot_L
				{
					OFFSET 40.9854 0.0 -1.26872e-05
					CHANNELS 6 Xposition Yposition Zposition Zrotation Xrotation Yrotation 
					JOINT Toes_L
					{
						OFFSET 11.7543 0.0 0.0
						CHANNELS 6 Xposition Yposition Zposition Zrotation Xrotation Yrotation 
						End Site
						{
							OFFSET 0.0 0.0 0.0
						}
					}
				}
			}
		}
		JOINT UpperLeg_R
		{
			OFFSET -2.19251 6.46944 0.0
			CHANNELS 6 Xposition Yposition Zposition Zrotation Xrotation Yrotation 
			JOINT LowerLeg_R
			{
				OFFSET -39.0811 -0.00228153 -0.0401928
				CHANNELS 6 Xposition Yposition Zposition Zrotation Xrotation Yrotation 
				JOINT Foot_R
				{
					OFFSET -40.9854 0.0 0.0
					CHANNELS 6 Xposition Yposition Zposition Zrotation Xrotation Yrotation 
					JOINT Toes_R
					{
						OFFSET -11.7543 0.0 0.0
						CHANNELS 6 Xposition Yposition Zposition Zrotation Xrotation Yrotation 
						End Site
						{
							OFFSET 0.0 0.0 0.0
						}
					}
				}
			}
		}
	}
}
MOTION
Frames:	4
Frame Time:	0.0333333
0.000000 0.000000 0.000000 0.000000 0.000000 -0.000000 0.107721 92.944100 0.977809 87.557700 1.016740 -0.567674 15.735700 0.000005 -0.000001 65.702600 87.467200 -63.982000 8.984550 -0.406207 -0.000000 -3.114250 -2.246680 3.381130 16.377300 -0.000001 -0.000001 3.710270 1.183820 -2.651850 6.456720 -0.000001 -0.000000 0.723245 0.169057 -0.814056 12.994200 -0.242716 4.980390 -92.427600 7.388920 -71.754700 5.348090 -0.000007 -0.000001 -74.497500 21.823300 2.496130 24.328600 0.000019 0.000005 15.980900 27.498300 -31.809300 22.291600 -0.000001 0.000005 -3.687480 5.025870 6.764470 12.994500 -0.242716 -4.980390 88.515900 4.737950 -72.585400 -5.348130 -0.000001 -0.000004 -70.139200 30.098300 -4.888250 -24.328900 0.000322 -0.000009 2.215870 7.325660 -16.888400 -22.291500 -0.000108 -0.000004 1.695610 5.221770 2.167610 -2.192480 -6.469440 -0.000000 -177.266000 1.462150 -2.332090 39.081100 -0.000007 -0.000012 0.177592 -0.556354 17.703800 40.985400 -0.000006 -0.000013 3.303800 10.461100 -72.047500 11.754300 -0.000000 0.000003 -0.000641 0.177792 -9.365060 -2.192510 6.469440 -0.000001 -176.237000 5.289670 -178.427000 -39.081100 -0.002282 -0.040193 0.012066 -0.043562 11.331600 -40.985400 0.000008 0.000006 -2.836330 1.224680 -68.650000 -11.754300 -0.000006 -0.000006 -0.010884 0.277793 -5.285550
0.000000 0.000000 0.000000 0.000000 0.000000 -0.000000 0.004278 92.943100 0.982073 87.566600 1.076320 -0.635252 15.735700 0.000005 -0.000001 65.521000 87.477800 -63.787900 8.984550 -0.406207 -0.000000 -3.139660 -2.254140 3.405540 16.377300 -0.000001 -0.000001 3.632600 1.135780 -2.663100 6.456720 -0.000001 -0.000000 0.599862 0.101205 -0.831510 12.994200 -0.242716 4.980390 -92.463200 7.460100 -71.669200 5.348090 -0.000007 -0.000001 -74.095500 20.911900 2.599180 24.328600 0.000019 0.000005 16.635100 27.138600 -33.225000 22.291600 -0.000001 0.000005 -3.622340 5.030860 6.656020 12.994500 -0.242716 -4.980390 88.512800 4.750860 -72.595700 -5.348130 -0.000001 -0.000004 -70.130600 30.023500 -4.932600 -24.328900 0.000322 -0.000009 2.196850 7.277430 -16.855700 -22.291500 -0.000108 -0.000004 1.719420 5.222360 2.152210 -2.192480 -6.469440 -0.000000 -177.196000 1.527360 -2.413810 39.081100 -0.000007 -0.000012 0.177692 -0.556291 17.715000 40.985400 -0.000006 -0.000013 3.228440 10.474000 -72.076600 11.754300 -0.000000 0.000003 -0.000699 0.178665 -9.329580 -2.192510 6.469440 -0.000001 -176.148000 5.288980 -178.473000 -39.081100 -0.002282 -0.040193 0.012664 -0.046757 11.281100 -40.985400 0.000008 0.000006 -2.698310 1.122410 -68.650000 -11.754300 -0.000006 -0.000006 -0.010840 0.277475 -5.298550
0.000000 0.000000 0.000000 0.000000 0.000000 -0.000000 -0.109762 92.950200 0.989080 87.575900 1.127500 -0.679773 15.735700 0.000005 -0.000001 65.793400 87.498500 -64.050100 8.984550 -0.406207 -0.000000 -3.167840 -2.216720 3.426260 16.377300 -0.000001 -0.000001 3.559250 1.061410 -2.634110 6.456720 -0.000001 -0.000000 0.496266 -0.005303 -0.963311 12.994200 -0.242716 4.980390 -92.492600 7.526570 -71.616700 5.348090 -0.000007 -0.000001 -73.630900 19.354400 2.751820 24.328600 0.000019 0.000005 17.540300 26.607200 -35.211400 22.291600 -0.000001 0.000005 -3.828800 5.024310 6.798210 12.994500 -0.242716 -4.980390 88.514200 4.740600 -72.575300 -5.348130 -0.000001 -0.000004 -70.153400 29.991100 -4.913740 -24.328900 0.000322 -0.000009 2.240060 7.393830 -16.914700 -22.291500 -0.000108 -0.000004 1.659170 5.220630 2.196720 -2.192480 -6.469440 -0.000000 -177.095000 1.502860 -2.437670 39.081100 -0.000007 -0.000012 0.173081 -0.543675 17.659400 40.985400 -0.000006 -0.000013 3.068110 10.609100 -72.020400 11.754300 -0.000000 0.000003 -0.000619 0.177468 -9.378200 -2.192510 6.469440 -0.000001 -176.080000 5.292040 -178.451000 -39.081100 -0.002282 -0.040193 0.011304 -0.040387 11.159500 -40.985400 0.000008 0.000006 -2.779700 1.075160 -68.584800 -11.754300 -0.000006 -0.000006 -0.010798 0.277177 -5.310770
0.000000 0.000000 0.000000 0.000000 0.000000 -0.000000 -0.230788 92.942700 0.994664 87.601500 1.167910 -0.712352 15.735700 0.000005 -0.000001 66.470200 87.513700 -64.734500 8.984550 -0.406207 -0.000000 -3.173000 -2.149890 3.412750 16.377300 -0.000001 -0.000001 3.432560 0.972514 -2.643900 6.456720 -0.000001 -0.000000 0.400402 -0.162477 -1.104320 12.994200 -0.242716 4.980390 -92.523600 7.576060 -71.515700 5.348090 -0.000007 -0.000001 -73.002700 17.501500 2.853800 24.328600 0.000019 0.000005 19.300800 26.370900 -38.252700 22.291600 -0.000001 0.000005 -4.160410 5.013670 7.027520 12.994500 -0.242716 -4.980390 88.510400 4.741980 -72.539100 -5.348130 -0.000001 -0.000004 -70.157200 30.045300 -4.942640 -24.328900 0.000322 -0.000009 2.192110 7.237880 -16.907500 -22.291500 -0.000108 -0.000004 1.670680 5.223350 2.126820 -2.192480 -6.469440 -0.000000 -177.037000 1.463720 -2.475500 39.081100 -0.000007 -0.000012 0.174991 -0.549510 17.664300 40.985400 -0.000006 -0.000013 3.067730 10.671300 -72.034600 11.754300 -0.000000 0.000003 -0.000643 0.177825 -9.363690 -2.192510 6.469440 -0.000001 -176.004000 5.325980 -178.497000 -39.081100 -0.002282 -0.040193 0.012379 -0.045710 11.189900 -40.985400 0.000008 0.000006 -2.595670 1.039050 -68.620300 -11.754300 -0.000006 -0.000006 -0.011029 0.278841 -5.242650
